<?xml version="1.0" ?><svg height="32" id="svg6485" version="1.1" viewBox="0 0 32 32" width="32" xmlns="http://www.w3.org/2000/svg" xmlns:cc="http://creativecommons.org/ns#" xmlns:dc="http://purl.org/dc/elements/1.1/" xmlns:inkscape="http://www.inkscape.org/namespaces/inkscape" xmlns:rdf="http://www.w3.org/1999/02/22-rdf-syntax-ns#" xmlns:sodipodi="http://sodipodi.sourceforge.net/DTD/sodipodi-0.dtd" xmlns:svg="http://www.w3.org/2000/svg" xmlns:xlink="http://www.w3.org/1999/xlink"><defs id="defs6487"><linearGradient id="linearGradient4821"><stop id="stop4823" offset="0" style="stop-color:#71bd81;stop-opacity:1"/><stop id="stop4825" offset="1" style="stop-color:#71bd81;stop-opacity:1"/></linearGradient><linearGradient gradientUnits="userSpaceOnUse" id="linearGradient4827" x1="1.0058594" x2="30" xlink:href="#linearGradient4821" y1="16.181641" y2="16.181641"/></defs><g id="layer1" transform="translate(0,-1020.3622)"><text id="text4366" style="font-style:normal;font-weight:normal;font-size:11.25px;line-height:125%;font-family:Sans;letter-spacing:0px;word-spacing:0px;fill:#000000;fill-opacity:1;stroke:none;stroke-width:1px;stroke-linecap:butt;stroke-linejoin:miter;stroke-opacity:1" x="12" xml:space="preserve" y="1036.3622"><tspan id="tspan4368" x="12" y="1036.3622"/></text><g id="text4981" style="font-style:normal;font-variant:normal;font-weight:normal;font-stretch:normal;font-size:12.37186241px;line-height:125%;font-family:'Roboto Condensed';-inkscape-font-specification:'Roboto Condensed, ';letter-spacing:0px;word-spacing:0px;fill:#000000;fill-opacity:1;stroke:none;stroke-width:1px;stroke-linecap:butt;stroke-linejoin:miter;stroke-opacity:1" transform="scale(1.1477838,0.87124422)"/><g id="text5050" style="font-style:normal;font-variant:normal;font-weight:normal;font-stretch:normal;font-size:7.79827929px;line-height:125%;font-family:'Roboto Condensed';-inkscape-font-specification:'Roboto Condensed, ';letter-spacing:0px;word-spacing:0px;fill:#000000;fill-opacity:1;stroke:none;stroke-width:1px;stroke-linecap:butt;stroke-linejoin:miter;stroke-opacity:1" transform="scale(1.1477838,0.87124422)"/><path d="M 21.751953 5.3632812 L 21.28125 5.5292969 C 14.679984 7.8580969 8.0797899 10.186825 1.4785156 12.515625 L 1.0058594 12.681641 L 4.9980469 24 L 5 24 L 18.279297 24 C 18.106608 24.295387 18 24.635226 18 25 C 18 26.0994 18.90065 27 20 27 L 28 27 C 29.09935 27 30 26.0994 30 25 C 30 24.401713 29.727029 23.867453 29.306641 23.5 C 29.727569 23.132545 30 22.598785 30 22 C 30 21.401713 29.727029 20.867453 29.306641 20.5 C 29.727569 20.132545 30 19.598785 30 19 C 30 17.9007 29.09935 17 28 17 L 27 17 L 27 12 L 24.095703 12 L 21.751953 5.3632812 z M 21.142578 6.6386719 L 23.033203 12 L 21.974609 12 L 21.210938 9.8378906 L 20.806641 9.8945312 C 20.004807 10.006831 19.219677 9.6348656 18.804688 8.9472656 L 18.59375 8.5976562 L 8.9511719 12 L 5.9453125 12 C 11.011053 10.212806 16.076567 8.4258661 21.142578 6.6386719 z M 18.285156 9.7675781 C 18.845044 10.432578 19.624949 10.802406 20.496094 10.816406 L 20.914062 12 L 11.957031 12 L 18.285156 9.7675781 z M 5 12.333984 L 5 15.277344 C 4.8762071 15.405722 4.7417102 15.523378 4.5878906 15.615234 L 4.2363281 15.824219 L 5 17.994141 L 5 20.998047 L 2.28125 13.292969 C 3.1875298 12.97325 4.0937575 12.653703 5 12.333984 z M 6 13 L 26 13 L 26 17 L 25 17 L 25 16.041016 L 24.599609 15.960938 C 23.806084 15.800137 23.189969 15.186991 23.027344 14.400391 L 22.943359 14 L 9.0585938 14 L 8.9746094 14.398438 C 8.8111994 15.184837 8.1941178 15.798884 7.4003906 15.958984 L 7 16.039062 L 7 19.951172 L 7.4003906 20.03125 C 8.196806 20.19265 8.8145621 20.807656 8.9746094 21.597656 L 9.0566406 21.998047 L 15.980469 21.998047 C 15.987153 21.99808 15.993309 22 16 22 C 16.006686 22 16.012852 21.99808 16.019531 21.998047 L 18 21.998047 C 18 21.998047 18 22 18 22 C 18 22.365748 18.107736 22.704097 18.28125 23 L 6 23 L 6 13 z M 9.7402344 15 L 13.371094 15 C 12.527824 15.733953 11.982428 16.800947 11.982422 18 C 11.982428 19.199053 12.527824 20.264093 13.371094 20.998047 L 9.7382812 20.998047 C 9.4329455 20.180747 8.8199892 19.571778 8 19.267578 L 8 16.724609 C 8.8187061 16.422209 9.4330433 15.815 9.7402344 15 z M 18.65625 15 L 22.263672 15 C 22.570239 15.814 23.18279 16.421509 24 16.724609 L 24 17 L 20 17 C 19.97397 17 19.949626 17.006812 19.923828 17.007812 C 19.764731 16.464221 19.508032 16.012886 19.279297 15.691406 C 19.098965 15.437938 18.889785 15.205168 18.65625 15 z M 15.695312 15.03125 L 15.695312 15.578125 C 15.497184 15.602462 15.318454 15.6499 15.158203 15.720703 C 14.997953 15.791448 14.86168 15.881598 14.748047 15.992188 C 14.637326 16.102777 14.551419 16.234389 14.490234 16.384766 C 14.431965 16.535142 14.402344 16.701419 14.402344 16.882812 C 14.402344 17.079656 14.434938 17.251967 14.501953 17.402344 C 14.571881 17.552721 14.672581 17.685777 14.800781 17.800781 C 14.931896 17.915785 15.087924 18.017262 15.271484 18.103516 C 15.457958 18.187562 15.667299 18.26199 15.900391 18.326172 C 16.07521 18.383674 16.225283 18.44199 16.347656 18.503906 C 16.472945 18.565823 16.572684 18.634079 16.648438 18.707031 C 16.727108 18.780042 16.783398 18.85736 16.818359 18.941406 C 16.853321 19.025452 16.871094 19.117301 16.871094 19.216797 L 16.871094 19.21875 C 16.871094 19.338227 16.850348 19.44568 16.806641 19.542969 C 16.762936 19.638051 16.697777 19.720467 16.613281 19.789062 C 16.531699 19.855219 16.430967 19.907559 16.308594 19.945312 C 16.189134 19.980743 16.050908 19.998047 15.896484 19.998047 C 15.785766 19.998047 15.675172 19.982166 15.564453 19.953125 C 15.453734 19.924374 15.353995 19.873792 15.263672 19.800781 C 15.17335 19.727771 15.100283 19.629692 15.044922 19.505859 C 14.98956 19.382027 14.960938 19.227077 14.960938 19.039062 L 14.193359 19.039062 C 14.193359 19.288993 14.231879 19.502513 14.310547 19.681641 C 14.389215 19.858561 14.493886 20.005777 14.625 20.123047 C 14.759028 20.240258 14.912079 20.330662 15.083984 20.392578 C 15.25589 20.454669 15.433628 20.493924 15.617188 20.513672 L 15.617188 20.960938 C 14.128626 20.77301 12.982429 19.531037 12.982422 18 C 12.982429 16.442376 14.168879 15.18443 15.695312 15.03125 z M 16.3125 15.037109 C 17.20073 15.129782 17.976192 15.584604 18.464844 16.271484 C 18.645808 16.525776 18.84519 16.893864 18.962891 17.298828 C 18.389114 17.651555 18 18.281295 18 19 C 18 19.354572 18.10181 19.682984 18.265625 19.972656 C 18.241244 20.000368 18.220692 20.031819 18.195312 20.058594 C 17.693765 20.587769 17.000329 20.919242 16.224609 20.976562 L 16.224609 20.513672 C 16.443133 20.491542 16.639633 20.449143 16.814453 20.382812 C 16.989272 20.316424 17.137392 20.227777 17.259766 20.117188 C 17.382137 20.006656 17.477907 19.875044 17.544922 19.724609 C 17.611937 19.572025 17.644531 19.401159 17.644531 19.210938 C 17.644531 19.016302 17.612928 18.845435 17.548828 18.697266 C 17.484728 18.549096 17.390912 18.417485 17.265625 18.304688 C 17.140338 18.19189 16.984342 18.093812 16.800781 18.009766 C 16.617222 17.923512 16.406888 17.845882 16.167969 17.777344 C 15.981495 17.717634 15.823513 17.657678 15.695312 17.595703 C 15.570025 17.53158 15.469293 17.463323 15.390625 17.392578 C 15.311954 17.321775 15.253711 17.244202 15.21875 17.160156 C 15.186696 17.073903 15.171875 16.977211 15.171875 16.871094 C 15.171875 16.75609 15.186696 16.65178 15.21875 16.556641 C 15.253712 16.461559 15.306032 16.380784 15.373047 16.314453 C 15.442974 16.246031 15.528882 16.194004 15.630859 16.15625 C 15.732838 16.118496 15.852332 16.099609 15.992188 16.099609 C 16.126216 16.099609 16.246671 16.124668 16.351562 16.175781 C 16.456451 16.226662 16.543351 16.298004 16.613281 16.388672 C 16.683211 16.479339 16.736523 16.585093 16.771484 16.708984 C 16.809361 16.832817 16.828125 16.969018 16.828125 17.117188 L 17.591797 17.117188 C 17.591797 16.668264 17.480211 16.3154 17.255859 16.056641 C 17.034421 15.7955 16.720411 15.63721 16.3125 15.582031 L 16.3125 15.037109 z M 20 18 L 28 18 C 28.562646 18 29 18.4374 29 19 C 29 19.5627 28.562646 20 28 20 L 20 20 C 19.437354 20 19 19.5627 19 19 C 19 18.4374 19.437354 18 20 18 z M 20 21 L 28 21 C 28.562646 21 29 21.4374 29 22 C 29 22.5627 28.562646 23 28 23 L 20 23 C 19.437354 23 19 22.5627 19 22 C 19 21.4374 19.437354 21 20 21 z M 20 24 L 28 24 C 28.562646 24 29 24.4374 29 25 C 29 25.5627 28.562646 26 28 26 L 20 26 C 19.437354 26 19 25.5627 19 25 C 19 24.4374 19.437354 24 20 24 z " id="path5296-6" style="color:#000000;font-style:normal;font-variant:normal;font-weight:normal;font-stretch:normal;font-size:medium;line-height:normal;font-family:sans-serif;text-indent:0;text-align:start;text-decoration:none;text-decoration-line:none;text-decoration-style:solid;text-decoration-color:#000000;letter-spacing:normal;word-spacing:normal;text-transform:none;direction:ltr;block-progression:tb;writing-mode:lr-tb;baseline-shift:baseline;text-anchor:start;white-space:normal;clip-rule:nonzero;display:inline;overflow:visible;visibility:visible;opacity:1;isolation:auto;mix-blend-mode:normal;color-interpolation:sRGB;color-interpolation-filters:linearRGB;solid-color:#000000;solid-opacity:1;fill:url(#linearGradient4827);fill-opacity:1;fill-rule:nonzero;stroke:none;stroke-width:0.99999994;stroke-linecap:butt;stroke-linejoin:miter;stroke-miterlimit:4;stroke-dasharray:none;stroke-dashoffset:0;stroke-opacity:1;color-rendering:auto;image-rendering:auto;shape-rendering:auto;text-rendering:auto;enable-background:accumulate" transform="translate(0,1020.3622)"/><g id="text5050-3" style="font-style:normal;font-variant:normal;font-weight:normal;font-stretch:normal;font-size:7.79827929px;line-height:125%;font-family:'Roboto Condensed';-inkscape-font-specification:'Roboto Condensed, ';letter-spacing:0px;word-spacing:0px;fill:#000000;fill-opacity:1;stroke:none;stroke-width:1px;stroke-linecap:butt;stroke-linejoin:miter;stroke-opacity:1" transform="scale(1.1477838,0.87124422)"/></g></svg>